<?xml version="1.0" encoding="utf-8"?>
<!-- Generator: Adobe Illustrator 26.0.1, SVG Export Plug-In . SVG Version: 6.00 Build 0)  -->
<svg version="1.1" xmlns="http://www.w3.org/2000/svg" xmlns:xlink="http://www.w3.org/1999/xlink" x="0px" y="0px"
	 viewBox="0 0 823.6 300.81" style="enable-background:new 0 0 823.6 300.81;" xml:space="preserve">
<style type="text/css">
	.st0{display:none;}
	.st1{display:inline;opacity:0.6;}
	.st2{fill:#00F0AF;}
	.st3{fill:#FA1996;}
	.st4{fill:#23C3FF;}
	.st5{fill:#FFCD32;}
	.st6{fill:#00BE5F;}
	.st7{fill:#870AA0;}
	.st8{fill:#2819FF;}
	.st9{fill:#FF5F0A;}
	.st10{fill:#A5FAE6;}
	.st11{fill:#FFAFE1;}
	.st12{fill:#AAE6FF;}
	.st13{fill:#FFF0AF;}
	.st14{fill:#9BE5BE;}
	.st15{fill:#CD9BD7;}
	.st16{fill:#A0AAFF;}
	.st17{fill:#FFBE9B;}
	.st18{fill:none;}
	.st19{fill:#23C3FF;stroke:#00BE5F;stroke-miterlimit:10;}
	.st20{fill:#00F0B0;}
	.st21{fill:#870AA1;}
	.st22{fill:#FFFFFF;}
	.st23{fill:#FFCC33;}
	.st24{fill:#FFF0B0;}
	.st25{fill:#291AFF;}
	.st26{clip-path:url(#SVGID_00000126293492304529783670000012206959296609329793_);fill:#FFFFFF;}
	.st27{clip-path:url(#SVGID_00000008114220812727968370000006763043708969319577_);fill:#FFFFFF;}
	.st28{clip-path:url(#SVGID_00000008114220812727968370000006763043708969319577_);fill:#FFBF9C;}
	.st29{clip-path:url(#SVGID_00000008114220812727968370000006763043708969319577_);fill:#FF5E0A;}
	.st30{fill:#FF5E0A;}
	.st31{fill:#24C2FF;}
	.st32{fill:#FA1A96;}
	.st33{fill:#870AA0;stroke:#870AA0;stroke-miterlimit:10;}
	.st34{fill:#FFFFFF;stroke:#870AA0;stroke-miterlimit:10;}
	.st35{stroke:#870AA0;stroke-miterlimit:10;}
	.st36{display:inline;opacity:0.5;}
</style>
<g id="Layer_3" class="st0">
</g>
<g id="Layer_2">
</g>
<g id="Layer_5">
</g>
<g id="Layer_6">
</g>
<g id="Layer_4">
	<g>
		<rect x="261.98" y="16.89" class="st22" width="54.02" height="250.81"/>
	</g>
	<g>
		<polygon class="st22" points="223.39,90.2 169.37,90.2 169.37,267.7 223.39,267.7 223.39,90.2 		"/>
	</g>
	<g>
		<path class="st22" d="M404.75,267.7h-54.02V90.2h54.02c0,1.95,0,3.9,0,5.84c0,27.5,0,55,0,82.5
			C404.75,208.27,404.75,237.98,404.75,267.7z"/>
	</g>
	<g>
		<path class="st22" d="M547.51,267.7h-54.02v-88.75h54.02c0,1.66,0,3.32,0,4.98c0,23.43,0-15.6,0,7.82
			C547.51,217.07,547.51,242.38,547.51,267.7z"/>
	</g>
	<g>
		<path class="st22" d="M694.14,267.7h-54.02v-92.61h54.02c0,1.73,0,3.46,0,5.2c0,24.44,0-16.28,0,8.17
			C694.14,214.87,694.14,241.28,694.14,267.7z"/>
	</g>
	<g>
		<path class="st22" d="M593.82,136.51c25.35,0,45.98,19.04,45.98,42.44h54.34c0-51.14-44.92-92.61-100.32-92.61
			c-55.41,0-100.32,41.46-100.32,92.61h54.34C547.83,155.55,568.46,136.51,593.82,136.51z"/>
	</g>
	<g>
		<circle class="st22" cx="755.88" cy="43.9" r="34.73"/>
	</g>
	<g>
		<path class="st22" d="M119.21,140.37c21.28,0,38.59,17.31,38.59,38.59s-17.31,38.59-38.59,38.59s-38.59-17.31-38.59-38.59
			S97.93,140.37,119.21,140.37 M119.21,86.35c-51.14,0-92.61,41.46-92.61,92.61s41.46,92.61,92.61,92.61s92.61-41.46,92.61-92.61
			S170.35,86.35,119.21,86.35L119.21,86.35z"/>
	</g>
	<g>
		<path class="st22" d="M449.12,136.51c24.87,0,45.1,19.04,45.1,42.44h53.3c0-51.14-44.05-92.61-98.39-92.61
			s-98.39,41.46-98.39,92.61h53.3C404.02,155.55,424.25,136.51,449.12,136.51z"/>
	</g>
	<path class="st22" d="M784.7,267.7h-54.28V90.2h54.28c0,3.32,0,6.64,0,9.96c0,46.85,0-31.2,0,15.65
		C784.7,166.44,784.7,217.07,784.7,267.7z"/>
	<rect x="730.64" y="166.36" class="st22" width="54.02" height="71.54"/>
	<g>
		<rect x="261.98" y="126.75" class="st22" width="54.02" height="140.95"/>
	</g>
	<rect x="730.64" y="236.83" class="st22" width="54.02" height="30.87"/>
	<path class="st22" d="M90.38,152.81c6.91-7.83,16.94-12.8,28.13-12.8c2.43,0,4.79,0.25,7.1,0.7V87.12c-2.34-0.18-4.7-0.31-7.1-0.31
		c-27.06,0-51.33,12-67.9,30.99L90.38,152.81z"/>
</g>
<g id="Layer_7">
</g>
<g id="Layer_4_copy" class="st0">
</g>
</svg>
